<svg xmlns="http://www.w3.org/2000/svg" width="101" height="90" viewBox="0 0 101 90">
    <g fill="none" fill-rule="nonzero">
        <path fill="#E07C7D" d="M65.184 37.913a30.574 30.574 0 0 0-3.258-2.863 18.941 18.941 0 0 0-7.564 5.215 22.23 22.23 0 0 1 6.776 4.706c8.716 8.836 8.716 23.152 0 31.985a22.102 22.102 0 0 1-31.56 0c-8.717-8.833-8.717-23.15 0-31.985a22.172 22.172 0 0 1 8.386-5.351 34.019 34.019 0 0 1 6.187-10.638 29.76 29.76 0 0 0-18.019 5.872l-.963-13.495c-.031-.45-.253-.854-.567-1.172l-4.584-4.644c-.72-.73-1.78-.721-2.499.009L.58 32.72c-.72.73-.795 1.871-.075 2.601l4.53 4.59c.314.319.713.523 1.152.557l13.443.977c-8.665 11.935-7.673 28.816 2.984 39.62a29.818 29.818 0 0 0 42.569-.002c11.755-11.917 11.76-31.235.002-43.15zM6.39 36.043l-1.96-1.99 14.348-14.538 1.96 1.987L6.39 36.042zm16.247 1.868l-12.047-.888 11.215-11.365.845 12.235c-.006.003-.008.011-.013.018z"/>
        <path fill="#726193" d="M98.33 18.004l2.52-6.103c.398-.96-.02-1.955-.973-2.353L77.486.159c-.951-.398-2.036-.033-2.432.927L72.563 7.12a1.863 1.863 0 0 0-.067 1.301l4.285 13.05C62.412 17.88 47.207 25.292 41.346 39.49c-6.005 14.54-.086 31.077 13.236 38.582a19.482 19.482 0 0 0 4.26-3.248c.247-.25.488-.508.719-.77-11.218-4.986-16.472-18.114-11.74-29.574 4.794-11.608 18.016-17.102 29.54-12.271 11.523 4.83 16.972 18.154 12.178 29.762a22.606 22.606 0 0 1-15.851 13.456 33.972 33.972 0 0 1-4.479 6.573c12.035.105 23.497-7.028 28.407-18.916 5.857-14.174.378-30.25-12.242-38.001l12.091-6.09c.402-.204.691-.569.865-.988zm-17.108 4.952l-.022-.004-3.83-11.702 14.825 6.215-10.973 5.491zm14.396-8.092l-18.963-7.95 1.078-2.612 18.96 7.951-1.075 2.611z"/>
    </g>
</svg>
