<svg xmlns="http://www.w3.org/2000/svg" width="94" height="94" viewBox="0 0 94 94">
    <g fill="none" fill-rule="evenodd">
        <path fill="#726193" fill-rule="nonzero" d="M92.484 84.889h-4.549V68.185c0-3.666-2.609-6.733-6.064-7.439V43.889c0-4.187-3.4-7.593-7.58-7.593h-6.53l-4.084-10.904v-8.836A4.558 4.558 0 0 0 59.13 12h-6.064a4.558 4.558 0 0 0-4.549 4.556v8.836l-4.083 10.904h-1.981v-9.11h1.516c.837 0 1.516-.681 1.516-1.52v-9.11A4.558 4.558 0 0 0 40.935 12H31.84a4.558 4.558 0 0 0-4.549 4.556v9.11c0 .839.68 1.52 1.516 1.52h1.517v9.11H19.71c-4.18 0-7.581 3.406-7.581 7.593v16.857c-3.455.706-6.064 3.773-6.064 7.44v16.703H1.516c-.837 0-1.516.68-1.516 1.518v6.074C0 93.32.68 94 1.516 94h90.968C93.32 94 94 93.32 94 92.481v-6.074c0-.838-.68-1.518-1.516-1.518zM15.16 47.555l1.333 1.334a8.767 8.767 0 0 0 6.248 2.592c2.36 0 4.58-.92 6.248-2.592l1.777-1.78c2.192-2.195 6.016-2.195 8.208 0l1.777 1.78A8.767 8.767 0 0 0 47 51.481c2.36 0 4.58-.92 6.248-2.592l1.777-1.78c2.192-2.195 6.016-2.195 8.208 0l1.777 1.78a8.767 8.767 0 0 0 6.248 2.592c2.36 0 4.58-.92 6.248-2.592l1.333-1.334v13.038H15.16V47.555zM51.453 26.2c.064-.17.095-.351.095-.533v-9.111c0-.837.681-1.519 1.517-1.519h6.064a1.52 1.52 0 0 1 1.516 1.519v9.11c0 .183.032.364.096.534l3.78 10.096h-16.85L51.454 26.2zm-19.614-2.052h-1.516v-7.592c0-.837.68-1.519 1.516-1.519h9.096a1.52 1.52 0 0 1 1.517 1.519v7.592h-1.517c-.836 0-1.516.68-1.516 1.519v10.63h-6.064v-10.63c0-.839-.68-1.519-1.516-1.519zM9.097 69.704h1.516c1.55 0 3.008.604 4.104 1.702l1.777 1.78a8.767 8.767 0 0 0 6.248 2.592c2.36 0 4.58-.92 6.248-2.592l1.777-1.78c2.192-2.196 6.016-2.196 8.208 0l1.777 1.78A8.767 8.767 0 0 0 47 75.778c2.36 0 4.58-.92 6.248-2.592l1.777-1.78c2.192-2.196 6.016-2.196 8.208 0l1.777 1.78a8.767 8.767 0 0 0 6.248 2.592c2.36 0 4.58-.92 6.248-2.592l1.777-1.78a5.763 5.763 0 0 1 4.104-1.702h1.516v15.185H9.097V69.704zm81.87 21.259H3.033v-3.037h87.936v3.037z"/>
        <path fill="#E07C7D" fill-rule="nonzero" d="M19.71 39.333h54.58c2.314 0 4.208 1.745 4.491 3.985l-3.419 3.424c-2.192 2.196-6.016 2.196-8.208 0l-1.777-1.78a8.767 8.767 0 0 0-6.248-2.592c-2.36 0-4.58.92-6.248 2.592l-1.777 1.78c-2.192 2.196-6.016 2.196-8.208 0l-1.777-1.78a8.767 8.767 0 0 0-6.248-2.592c-2.36 0-4.58.92-6.248 2.592l-1.777 1.78c-2.192 2.196-6.016 2.196-8.208 0l-3.42-3.424c.284-2.24 2.178-3.985 4.492-3.985zM13.645 63.63h66.71c1.974 0 3.642 1.274 4.27 3.037h-1.238c-2.36 0-4.58.92-6.248 2.592l-1.777 1.78c-2.192 2.195-6.016 2.195-8.208 0l-1.777-1.78a8.767 8.767 0 0 0-6.248-2.592c-2.36 0-4.58.92-6.248 2.592l-1.777 1.78c-2.192 2.195-6.016 2.195-8.208 0l-1.777-1.78a8.767 8.767 0 0 0-6.248-2.592c-2.36 0-4.58.92-6.248 2.592l-1.777 1.78c-2.192 2.195-6.016 2.195-8.208 0l-1.777-1.78a8.767 8.767 0 0 0-6.248-2.592H9.376c.627-1.763 2.295-3.037 4.27-3.037z"/>
        <path fill="#E07C7D" d="M12 79h3v3h-3zM18 79h3v3h-3zM24 79h3v3h-3zM30 79h3v3h-3zM36 79h3v3h-3zM42 79h3v3h-3zM49 79h3v3h-3zM55 79h3v3h-3zM61 79h3v3h-3zM67 79h3v3h-3zM73 79h3v3h-3zM18 55h3v3h-3zM24 55h3v3h-3zM30 55h3v3h-3zM36 55h3v3h-3zM42 55h3v3h-3zM49 55h3v3h-3zM55 55h3v3h-3zM61 55h3v3h-3zM67 55h3v3h-3zM73 55h3v3h-3zM79 79h3v3h-3z"/>
        <path fill="#726193" fill-rule="nonzero" d="M42 6c0-3.309-2.691-6-6-6s-6 2.691-6 6 2.691 6 6 6 6-2.691 6-6zm-6 3c-1.654 0-3-1.346-3-3s1.346-3 3-3 3 1.346 3 3-1.346 3-3 3zM62 6c0-3.309-2.691-6-6-6s-6 2.691-6 6 2.691 6 6 6 6-2.691 6-6zm-6 3c-1.654 0-3-1.346-3-3s1.346-3 3-3 3 1.346 3 3-1.346 3-3 3z"/>
    </g>
</svg>
