<svg xmlns="http://www.w3.org/2000/svg" width="50" height="66" viewBox="0 0 50 66">
    <g fill="none" fill-rule="evenodd">
        <path fill="#726193" d="M20.8 62c1.214 0 2.2.896 2.2 2s-.986 2-2.2 2H3.2C1.986 66 1 65.104 1 64s.986-2 2.2-2h17.6zM29.952 40a2.225 2.225 0 0 1-2.227-2.222c0-1.227.997-2.222 2.227-2.222 4.3 0 8.203-1.74 11.024-4.555l.125-.115a15.497 15.497 0 0 0 4.445-10.879c0-4.296-1.75-8.189-4.57-10.999l-.116-.125a15.553 15.553 0 0 0-10.908-4.439H3.227A2.225 2.225 0 0 1 1 2.222C1 .995 1.998 0 3.227 0h26.725a19.999 19.999 0 0 1 14.03 5.73l.144.13A19.926 19.926 0 0 1 50 20.004c0 5.439-2.19 10.383-5.74 13.994l-.13.143A20.018 20.018 0 0 1 29.952 40z"/>
        <path fill="#726193" d="M3.215 40C1.992 40 1 39.104 1 38s.992-2 2.215-2h26.57c1.223 0 2.215.896 2.215 2s-.992 2-2.215 2H3.215z"/>
        <path fill="#726193" d="M14 63.8c0 1.214-.896 2.2-2 2.2s-2-.985-2-2.2V2.2c0-1.215.896-2.2 2-2.2s2 .986 2 2.2v61.6z"/>
        <path fill="#E07C7D" d="M2.187 49C.98 49 0 48.104 0 47s.98-2 2.187-2h30.626C34.02 45 35 45.896 35 47s-.98 2-2.187 2H2.187z"/>
    </g>
</svg>
