<svg xmlns="http://www.w3.org/2000/svg" width="144" height="106" viewBox="0 0 144 106">
    <g fill="none" fill-rule="nonzero">
        <path fill="#726193" d="M141.873 42.6a6.998 6.998 0 0 0 1.778-7.211 6.988 6.988 0 0 0-5.675-4.79l-23.73-3.452a3.1 3.1 0 0 1-2.334-1.7L101.303 3.922A6.985 6.985 0 0 0 95 0a6.984 6.984 0 0 0-6.301 3.921l-10.61 21.527a3.103 3.103 0 0 1-2.338 1.7L52.022 30.6a6.983 6.983 0 0 0-5.673 4.788 6.998 6.998 0 0 0 1.778 7.212l17.169 16.754a3.113 3.113 0 0 1 .894 2.75l-4.052 23.66a6.995 6.995 0 0 0 2.795 6.88 6.963 6.963 0 0 0 7.402.537l21.22-11.171a3.103 3.103 0 0 1 2.89 0l21.222 11.17a7.013 7.013 0 0 0 3.276.816c1.45 0 2.894-.454 4.126-1.352a6.995 6.995 0 0 0 2.795-6.88l-4.054-23.658a3.111 3.111 0 0 1 .894-2.75l17.17-16.756zm-21.93 20.171l4.053 23.658a3.053 3.053 0 0 1-1.234 3.04c-.98.709-2.198.795-3.268.237L98.271 78.534A7.05 7.05 0 0 0 95 77.726a7.034 7.034 0 0 0-3.271.81l-21.22 11.17c-1.073.558-2.291.472-3.269-.237a3.055 3.055 0 0 1-1.234-3.04l4.052-23.658a7.041 7.041 0 0 0-2.021-6.227l-17.17-16.757a3.047 3.047 0 0 1-.786-3.184 3.046 3.046 0 0 1 2.504-2.116l23.727-3.452a7.019 7.019 0 0 0 5.293-3.849L92.215 5.66a3.044 3.044 0 0 1 2.783-1.73c1.209 0 2.249.646 2.785 1.73l10.61 21.526a7.016 7.016 0 0 0 5.29 3.85l23.73 3.45a3.046 3.046 0 0 1 2.504 2.117c.373 1.15.08 2.34-.785 3.184l-17.169 16.755a7.038 7.038 0 0 0-2.02 6.23z"/>
        <path fill="#E07C7D" stroke="#E07C7D" d="M52.85 77.113a3.805 3.805 0 0 0 .961-3.913 3.782 3.782 0 0 0-3.069-2.598L37.91 68.729a1.677 1.677 0 0 1-1.263-.922l-5.737-11.68A3.776 3.776 0 0 0 27.5 54a3.776 3.776 0 0 0-3.408 2.128l-5.738 11.679a1.679 1.679 0 0 1-1.264.922L4.257 70.603A3.78 3.78 0 0 0 1.189 73.2a3.805 3.805 0 0 0 .961 3.913l9.285 9.09c.396.388.578.947.484 1.493l-2.191 12.836a3.8 3.8 0 0 0 1.511 3.733 3.756 3.756 0 0 0 4.003.291l11.477-6.06a1.674 1.674 0 0 1 1.562 0l11.478 6.06c.56.296 1.167.442 1.771.442.784 0 1.566-.246 2.232-.733a3.8 3.8 0 0 0 1.511-3.733l-2.192-12.835a1.691 1.691 0 0 1 .484-1.493l9.285-9.09zM41.058 88.105l2.203 12.908c.11.65-.14 1.27-.671 1.659a1.655 1.655 0 0 1-1.776.13l-11.535-6.097a3.811 3.811 0 0 0-3.556.001l-11.533 6.095a1.656 1.656 0 0 1-1.777-.13 1.67 1.67 0 0 1-.67-1.658l2.202-12.908a3.851 3.851 0 0 0-1.099-3.398l-9.333-9.142c-.47-.461-.63-1.11-.426-1.738a1.657 1.657 0 0 1 1.36-1.154l12.897-1.884a3.816 3.816 0 0 0 2.876-2.1l5.767-11.745c.29-.591.857-.944 1.513-.944.657 0 1.222.353 1.513.944L34.78 68.69a3.814 3.814 0 0 0 2.876 2.1l12.897 1.884c.65.095 1.158.526 1.36 1.154a1.67 1.67 0 0 1-.426 1.738l-9.331 9.141a3.85 3.85 0 0 0-1.098 3.4z"/>
    </g>
</svg>
